%TF.GenerationSoftware,KiCad,Pcbnew,9.0.3*%
%TF.CreationDate,2025-12-16T09:58:44+01:00*%
%TF.ProjectId,PTP_Teo_Sencar_Project1,5054505f-5465-46f5-9f53-656e6361725f,rev?*%
%TF.SameCoordinates,Original*%
%TF.FileFunction,Soldermask,Top*%
%TF.FilePolarity,Negative*%
%FSLAX46Y46*%
G04 Gerber Fmt 4.6, Leading zero omitted, Abs format (unit mm)*
G04 Created by KiCad (PCBNEW 9.0.3) date 2025-12-16 09:58:44*
%MOMM*%
%LPD*%
G01*
G04 APERTURE LIST*
G04 Aperture macros list*
%AMRoundRect*
0 Rectangle with rounded corners*
0 $1 Rounding radius*
0 $2 $3 $4 $5 $6 $7 $8 $9 X,Y pos of 4 corners*
0 Add a 4 corners polygon primitive as box body*
4,1,4,$2,$3,$4,$5,$6,$7,$8,$9,$2,$3,0*
0 Add four circle primitives for the rounded corners*
1,1,$1+$1,$2,$3*
1,1,$1+$1,$4,$5*
1,1,$1+$1,$6,$7*
1,1,$1+$1,$8,$9*
0 Add four rect primitives between the rounded corners*
20,1,$1+$1,$2,$3,$4,$5,0*
20,1,$1+$1,$4,$5,$6,$7,0*
20,1,$1+$1,$6,$7,$8,$9,0*
20,1,$1+$1,$8,$9,$2,$3,0*%
G04 Aperture macros list end*
%ADD10O,1.500000X2.500000*%
%ADD11R,1.500000X2.500000*%
%ADD12O,2.200000X3.500000*%
%ADD13C,1.800000*%
%ADD14R,1.800000X1.800000*%
%ADD15C,2.000000*%
%ADD16RoundRect,0.250000X-0.400000X-0.625000X0.400000X-0.625000X0.400000X0.625000X-0.400000X0.625000X0*%
%ADD17C,5.500000*%
%ADD18RoundRect,0.150000X-0.512500X-0.150000X0.512500X-0.150000X0.512500X0.150000X-0.512500X0.150000X0*%
%ADD19C,1.600000*%
%ADD20RoundRect,0.250000X-0.550000X0.550000X-0.550000X-0.550000X0.550000X-0.550000X0.550000X0.550000X0*%
%ADD21RoundRect,0.250000X0.400000X0.625000X-0.400000X0.625000X-0.400000X-0.625000X0.400000X-0.625000X0*%
%ADD22RoundRect,0.250000X-0.550000X-0.550000X0.550000X-0.550000X0.550000X0.550000X-0.550000X0.550000X0*%
%ADD23RoundRect,0.250000X-0.950000X-0.550000X0.950000X-0.550000X0.950000X0.550000X-0.950000X0.550000X0*%
%ADD24O,2.400000X1.600000*%
%ADD25R,1.600000X1.600000*%
%ADD26RoundRect,0.249999X-0.850001X-0.850001X0.850001X-0.850001X0.850001X0.850001X-0.850001X0.850001X0*%
%ADD27C,2.200000*%
%ADD28RoundRect,0.250000X-0.412500X-0.650000X0.412500X-0.650000X0.412500X0.650000X-0.412500X0.650000X0*%
%ADD29RoundRect,0.250001X-1.149999X-1.149999X1.149999X-1.149999X1.149999X1.149999X-1.149999X1.149999X0*%
%ADD30C,2.800000*%
%ADD31C,2.400000*%
G04 APERTURE END LIST*
D10*
%TO.C,SW2*%
X105000000Y-95702500D03*
X107000000Y-95702500D03*
D11*
X109000000Y-95702500D03*
D12*
X102900000Y-95702500D03*
X111100000Y-95702500D03*
%TD*%
D13*
%TO.C,D3*%
X144000000Y-74000000D03*
D14*
X144000000Y-71460000D03*
%TD*%
D15*
%TO.C,SW1*%
X103750000Y-84750000D03*
X110250000Y-84750000D03*
X103750000Y-89250000D03*
X110250000Y-89250000D03*
%TD*%
D16*
%TO.C,R13*%
X118450000Y-94690000D03*
X121550000Y-94690000D03*
%TD*%
%TO.C,R8*%
X193450000Y-93000000D03*
X196550000Y-93000000D03*
%TD*%
%TO.C,R10*%
X118450000Y-91000000D03*
X121550000Y-91000000D03*
%TD*%
%TO.C,R17*%
X175450000Y-87000000D03*
X178550000Y-87000000D03*
%TD*%
D17*
%TO.C,H4*%
X191000000Y-123000000D03*
%TD*%
D18*
%TO.C,U6*%
X119000000Y-77050000D03*
X119000000Y-78000000D03*
X119000000Y-78950000D03*
X121275000Y-78950000D03*
X121275000Y-78000000D03*
X121275000Y-77050000D03*
%TD*%
D16*
%TO.C,R6*%
X193450000Y-90000000D03*
X196550000Y-90000000D03*
%TD*%
D19*
%TO.C,R3*%
X145000000Y-65160000D03*
X145000000Y-55000000D03*
%TD*%
D20*
%TO.C,C2*%
X167000000Y-117000000D03*
D19*
X167000000Y-119000000D03*
%TD*%
D16*
%TO.C,R19*%
X125450000Y-105690000D03*
X128550000Y-105690000D03*
%TD*%
D21*
%TO.C,R15*%
X179000000Y-77000000D03*
X175900000Y-77000000D03*
%TD*%
D22*
%TO.C,U7*%
X132195000Y-105190000D03*
D19*
X132195000Y-107730000D03*
X132195000Y-110270000D03*
X132195000Y-112810000D03*
X139815000Y-112810000D03*
X139815000Y-110270000D03*
X139815000Y-107730000D03*
X139815000Y-105190000D03*
%TD*%
%TO.C,R4*%
X139000000Y-65160000D03*
X139000000Y-55000000D03*
%TD*%
D23*
%TO.C,U3*%
X146190000Y-82110000D03*
D24*
X146190000Y-84650000D03*
X146190000Y-87190000D03*
X146190000Y-89730000D03*
X146190000Y-92270000D03*
X146190000Y-94810000D03*
X146190000Y-97350000D03*
X146190000Y-99890000D03*
X153810000Y-99890000D03*
X153810000Y-97350000D03*
X153810000Y-94810000D03*
X153810000Y-92270000D03*
X153810000Y-89730000D03*
X153810000Y-87190000D03*
X153810000Y-84650000D03*
X153810000Y-82110000D03*
%TD*%
D17*
%TO.C,H3*%
X191000000Y-59000000D03*
%TD*%
%TO.C,H1*%
X107000000Y-59000000D03*
%TD*%
D23*
%TO.C,U4*%
X160190000Y-82110000D03*
D24*
X160190000Y-84650000D03*
X160190000Y-87190000D03*
X160190000Y-89730000D03*
X160190000Y-92270000D03*
X160190000Y-94810000D03*
X160190000Y-97350000D03*
X160190000Y-99890000D03*
X167810000Y-99890000D03*
X167810000Y-97350000D03*
X167810000Y-94810000D03*
X167810000Y-92270000D03*
X167810000Y-89730000D03*
X167810000Y-87190000D03*
X167810000Y-84650000D03*
X167810000Y-82110000D03*
%TD*%
D23*
%TO.C,U1*%
X146190000Y-105190000D03*
D24*
X146190000Y-107730000D03*
X146190000Y-110270000D03*
X146190000Y-112810000D03*
X153810000Y-112810000D03*
X153810000Y-110270000D03*
X153810000Y-107730000D03*
X153810000Y-105190000D03*
%TD*%
D16*
%TO.C,R14*%
X175450000Y-93000000D03*
X178550000Y-93000000D03*
%TD*%
D22*
%TO.C,C1*%
X166000000Y-126000000D03*
D19*
X168000000Y-126000000D03*
%TD*%
D25*
%TO.C,U5*%
X183532500Y-84982500D03*
D19*
X183532500Y-87522500D03*
X183532500Y-90062500D03*
X183532500Y-92602500D03*
X183532500Y-95142500D03*
X188612500Y-95142500D03*
X188612500Y-92602500D03*
X188612500Y-90062500D03*
X188612500Y-87522500D03*
X188612500Y-84982500D03*
%TD*%
D14*
%TO.C,D2*%
X151470000Y-71460000D03*
D13*
X151470000Y-74000000D03*
%TD*%
D26*
%TO.C,D4*%
X127650000Y-126000000D03*
D27*
X140350000Y-126000000D03*
%TD*%
D28*
%TO.C,C3*%
X118437500Y-102000000D03*
X121562500Y-102000000D03*
%TD*%
D16*
%TO.C,R5*%
X193450000Y-87000000D03*
X196550000Y-87000000D03*
%TD*%
D28*
%TO.C,C4*%
X118437500Y-106000000D03*
X121562500Y-106000000D03*
%TD*%
D19*
%TO.C,R2*%
X151000000Y-65160000D03*
X151000000Y-55000000D03*
%TD*%
D21*
%TO.C,R11*%
X165550000Y-110310000D03*
X162450000Y-110310000D03*
%TD*%
D16*
%TO.C,R16*%
X175450000Y-96500000D03*
X178550000Y-96500000D03*
%TD*%
D17*
%TO.C,H2*%
X107000000Y-123000000D03*
%TD*%
D16*
%TO.C,R20*%
X125450000Y-109000000D03*
X128550000Y-109000000D03*
%TD*%
D21*
%TO.C,R12*%
X165550000Y-107000000D03*
X162450000Y-107000000D03*
%TD*%
D14*
%TO.C,D5*%
X136530000Y-71460000D03*
D13*
X136530000Y-74000000D03*
%TD*%
D19*
%TO.C,R1*%
X157000000Y-65160000D03*
X157000000Y-55000000D03*
%TD*%
D28*
%TO.C,C5*%
X118437500Y-109350000D03*
X121562500Y-109350000D03*
%TD*%
D16*
%TO.C,R18*%
X175450000Y-90000000D03*
X178550000Y-90000000D03*
%TD*%
D14*
%TO.C,D1*%
X158940000Y-71460000D03*
D13*
X158940000Y-74000000D03*
%TD*%
D29*
%TO.C,J1*%
X150500000Y-125117500D03*
D30*
X155500000Y-125117500D03*
%TD*%
D16*
%TO.C,R9*%
X118450000Y-87690000D03*
X121550000Y-87690000D03*
%TD*%
%TO.C,R7*%
X118450000Y-98000000D03*
X121550000Y-98000000D03*
%TD*%
D31*
%TO.C,L1*%
X123500000Y-118000000D03*
X120500000Y-118000000D03*
%TD*%
D23*
%TO.C,U2*%
X132190000Y-82110000D03*
D24*
X132190000Y-84650000D03*
X132190000Y-87190000D03*
X132190000Y-89730000D03*
X132190000Y-92270000D03*
X132190000Y-94810000D03*
X132190000Y-97350000D03*
X132190000Y-99890000D03*
X139810000Y-99890000D03*
X139810000Y-97350000D03*
X139810000Y-94810000D03*
X139810000Y-92270000D03*
X139810000Y-89730000D03*
X139810000Y-87190000D03*
X139810000Y-84650000D03*
X139810000Y-82110000D03*
%TD*%
M02*
