M48
; DRILL file {KiCad 9.0.3} date 2025-12-16T09:57:53+0100
; FORMAT={-:-/ absolute / metric / decimal}
; #@! TF.CreationDate,2025-12-16T09:57:53+01:00
; #@! TF.GenerationSoftware,Kicad,Pcbnew,9.0.3
; #@! TF.FileFunction,MixedPlating,1,2
FMAT,2
METRIC
; #@! TA.AperFunction,Plated,PTH,ViaDrill
T1C0.300
; #@! TA.AperFunction,Plated,PTH,ComponentDrill
T2C0.800
; #@! TA.AperFunction,Plated,PTH,ComponentDrill
T3C0.900
; #@! TA.AperFunction,Plated,PTH,ComponentDrill
T4C1.100
; #@! TA.AperFunction,Plated,PTH,ComponentDrill
T5C1.200
; #@! TA.AperFunction,Plated,PTH,ComponentDrill
T6C1.400
; #@! TA.AperFunction,Plated,PTH,ComponentDrill
T7C1.500
; #@! TA.AperFunction,NonPlated,NPTH,ComponentDrill
T8C5.500
%
G90
G05
T1
X118.0Y-93.0
X119.0Y-86.0
X120.0Y-107.5
X120.9Y-84.0
X122.0Y-80.0
X122.5Y-108.0
X123.0Y-86.0
X123.0Y-96.5
X123.0Y-99.5
X123.0Y-104.5
X124.0Y-81.5
X124.0Y-105.0
X124.0Y-113.0
X125.0Y-93.0
X125.0Y-102.0
X125.0Y-103.5
X129.0Y-85.0
X129.85Y-109.5
X130.5Y-108.0
X130.919Y-110.615
X135.0Y-92.5
X135.0Y-94.5
X135.0Y-109.0
X136.0Y-107.5
X136.0Y-110.0
X137.5Y-108.5
X141.5Y-78.5
X142.5Y-82.5
X142.5Y-86.5
X143.0Y-78.5
X143.5Y-81.0
X143.5Y-91.0
X145.5Y-77.0
X145.5Y-79.5
X148.0Y-91.0
X149.5Y-99.0
X150.5Y-84.0
X153.0Y-116.5
X155.0Y-80.0
X156.0Y-92.0
X156.5Y-90.0
X157.0Y-116.5
X161.5Y-102.0
X162.5Y-83.5
X163.0Y-85.5
X167.0Y-80.0
X170.0Y-99.0
X173.0Y-96.5
X175.0Y-103.0
X175.5Y-99.0
X180.5Y-92.35
X180.5Y-94.0
X191.0Y-95.0
X191.5Y-84.0
X191.5Y-86.0
X193.5Y-95.5
T2
X105.0Y-95.703
X107.0Y-95.703
X109.0Y-95.703
X132.19Y-82.11
X132.19Y-84.65
X132.19Y-87.19
X132.19Y-89.73
X132.19Y-92.27
X132.19Y-94.81
X132.19Y-97.35
X132.19Y-99.89
X132.195Y-105.19
X132.195Y-107.73
X132.195Y-110.27
X132.195Y-112.81
X139.0Y-55.0
X139.0Y-65.16
X139.81Y-82.11
X139.81Y-84.65
X139.81Y-87.19
X139.81Y-89.73
X139.81Y-92.27
X139.81Y-94.81
X139.81Y-97.35
X139.81Y-99.89
X139.815Y-105.19
X139.815Y-107.73
X139.815Y-110.27
X139.815Y-112.81
X145.0Y-55.0
X145.0Y-65.16
X146.19Y-82.11
X146.19Y-84.65
X146.19Y-87.19
X146.19Y-89.73
X146.19Y-92.27
X146.19Y-94.81
X146.19Y-97.35
X146.19Y-99.89
X146.19Y-105.19
X146.19Y-107.73
X146.19Y-110.27
X146.19Y-112.81
X151.0Y-55.0
X151.0Y-65.16
X153.81Y-82.11
X153.81Y-84.65
X153.81Y-87.19
X153.81Y-89.73
X153.81Y-92.27
X153.81Y-94.81
X153.81Y-97.35
X153.81Y-99.89
X153.81Y-105.19
X153.81Y-107.73
X153.81Y-110.27
X153.81Y-112.81
X157.0Y-55.0
X157.0Y-65.16
X160.19Y-82.11
X160.19Y-84.65
X160.19Y-87.19
X160.19Y-89.73
X160.19Y-92.27
X160.19Y-94.81
X160.19Y-97.35
X160.19Y-99.89
X166.0Y-126.0
X167.0Y-117.0
X167.0Y-119.0
X167.81Y-82.11
X167.81Y-84.65
X167.81Y-87.19
X167.81Y-89.73
X167.81Y-92.27
X167.81Y-94.81
X167.81Y-97.35
X167.81Y-99.89
X168.0Y-126.0
X183.532Y-84.983
X183.532Y-87.522
X183.532Y-90.062
X183.532Y-92.602
X183.532Y-95.142
X188.612Y-84.983
X188.612Y-87.522
X188.612Y-90.062
X188.612Y-92.602
X188.612Y-95.142
T3
X136.53Y-71.46
X136.53Y-74.0
X144.0Y-71.46
X144.0Y-74.0
X151.47Y-71.46
X151.47Y-74.0
X158.94Y-71.46
X158.94Y-74.0
T4
X103.75Y-84.75
X103.75Y-89.25
X110.25Y-84.75
X110.25Y-89.25
X127.65Y-126.0
X140.35Y-126.0
T5
X120.5Y-118.0
X123.5Y-118.0
T6
X150.5Y-125.117
X155.5Y-125.117
T7
X102.9Y-95.703
X111.1Y-95.703
T8
X107.0Y-59.0
X107.0Y-123.0
X191.0Y-59.0
X191.0Y-123.0
M30
