%TF.GenerationSoftware,KiCad,Pcbnew,9.0.3*%
%TF.CreationDate,2025-12-16T09:58:44+01:00*%
%TF.ProjectId,PTP_Teo_Sencar_Project1,5054505f-5465-46f5-9f53-656e6361725f,rev?*%
%TF.SameCoordinates,Original*%
%TF.FileFunction,Copper,L1,Top*%
%TF.FilePolarity,Positive*%
%FSLAX46Y46*%
G04 Gerber Fmt 4.6, Leading zero omitted, Abs format (unit mm)*
G04 Created by KiCad (PCBNEW 9.0.3) date 2025-12-16 09:58:44*
%MOMM*%
%LPD*%
G01*
G04 APERTURE LIST*
G04 Aperture macros list*
%AMRoundRect*
0 Rectangle with rounded corners*
0 $1 Rounding radius*
0 $2 $3 $4 $5 $6 $7 $8 $9 X,Y pos of 4 corners*
0 Add a 4 corners polygon primitive as box body*
4,1,4,$2,$3,$4,$5,$6,$7,$8,$9,$2,$3,0*
0 Add four circle primitives for the rounded corners*
1,1,$1+$1,$2,$3*
1,1,$1+$1,$4,$5*
1,1,$1+$1,$6,$7*
1,1,$1+$1,$8,$9*
0 Add four rect primitives between the rounded corners*
20,1,$1+$1,$2,$3,$4,$5,0*
20,1,$1+$1,$4,$5,$6,$7,0*
20,1,$1+$1,$6,$7,$8,$9,0*
20,1,$1+$1,$8,$9,$2,$3,0*%
G04 Aperture macros list end*
%TA.AperFunction,ComponentPad*%
%ADD10O,1.500000X2.500000*%
%TD*%
%TA.AperFunction,ComponentPad*%
%ADD11R,1.500000X2.500000*%
%TD*%
%TA.AperFunction,ComponentPad*%
%ADD12O,2.200000X3.500000*%
%TD*%
%TA.AperFunction,ComponentPad*%
%ADD13C,1.800000*%
%TD*%
%TA.AperFunction,ComponentPad*%
%ADD14R,1.800000X1.800000*%
%TD*%
%TA.AperFunction,ComponentPad*%
%ADD15C,2.000000*%
%TD*%
%TA.AperFunction,SMDPad,CuDef*%
%ADD16RoundRect,0.250000X-0.400000X-0.625000X0.400000X-0.625000X0.400000X0.625000X-0.400000X0.625000X0*%
%TD*%
%TA.AperFunction,SMDPad,CuDef*%
%ADD17RoundRect,0.150000X-0.512500X-0.150000X0.512500X-0.150000X0.512500X0.150000X-0.512500X0.150000X0*%
%TD*%
%TA.AperFunction,ComponentPad*%
%ADD18C,1.600000*%
%TD*%
%TA.AperFunction,ComponentPad*%
%ADD19RoundRect,0.250000X-0.550000X0.550000X-0.550000X-0.550000X0.550000X-0.550000X0.550000X0.550000X0*%
%TD*%
%TA.AperFunction,SMDPad,CuDef*%
%ADD20RoundRect,0.250000X0.400000X0.625000X-0.400000X0.625000X-0.400000X-0.625000X0.400000X-0.625000X0*%
%TD*%
%TA.AperFunction,ComponentPad*%
%ADD21RoundRect,0.250000X-0.550000X-0.550000X0.550000X-0.550000X0.550000X0.550000X-0.550000X0.550000X0*%
%TD*%
%TA.AperFunction,ComponentPad*%
%ADD22RoundRect,0.250000X-0.950000X-0.550000X0.950000X-0.550000X0.950000X0.550000X-0.950000X0.550000X0*%
%TD*%
%TA.AperFunction,ComponentPad*%
%ADD23O,2.400000X1.600000*%
%TD*%
%TA.AperFunction,ComponentPad*%
%ADD24R,1.600000X1.600000*%
%TD*%
%TA.AperFunction,ComponentPad*%
%ADD25RoundRect,0.249999X-0.850001X-0.850001X0.850001X-0.850001X0.850001X0.850001X-0.850001X0.850001X0*%
%TD*%
%TA.AperFunction,ComponentPad*%
%ADD26C,2.200000*%
%TD*%
%TA.AperFunction,SMDPad,CuDef*%
%ADD27RoundRect,0.250000X-0.412500X-0.650000X0.412500X-0.650000X0.412500X0.650000X-0.412500X0.650000X0*%
%TD*%
%TA.AperFunction,ComponentPad*%
%ADD28RoundRect,0.250001X-1.149999X-1.149999X1.149999X-1.149999X1.149999X1.149999X-1.149999X1.149999X0*%
%TD*%
%TA.AperFunction,ComponentPad*%
%ADD29C,2.800000*%
%TD*%
%TA.AperFunction,ComponentPad*%
%ADD30C,2.400000*%
%TD*%
%TA.AperFunction,ViaPad*%
%ADD31C,0.700000*%
%TD*%
%TA.AperFunction,Conductor*%
%ADD32C,0.200000*%
%TD*%
G04 APERTURE END LIST*
D10*
%TO.P,SW2,3,A*%
%TO.N,Net-(SW2-A)*%
X105000000Y-95702500D03*
%TO.P,SW2,2,C*%
%TO.N,555*%
X107000000Y-95702500D03*
D11*
%TO.P,SW2,1,B*%
%TO.N,Clock*%
X109000000Y-95702500D03*
D12*
%TO.P,SW2,*%
%TO.N,*%
X102900000Y-95702500D03*
X111100000Y-95702500D03*
%TD*%
D13*
%TO.P,D3,2,A*%
%TO.N,Q2*%
X144000000Y-74000000D03*
D14*
%TO.P,D3,1,K*%
%TO.N,Net-(D3-K)*%
X144000000Y-71460000D03*
%TD*%
D15*
%TO.P,SW1,1,1*%
%TO.N,GND*%
X103750000Y-84750000D03*
X110250000Y-84750000D03*
%TO.P,SW1,2,2*%
%TO.N,Net-(R13-Pad1)*%
X103750000Y-89250000D03*
X110250000Y-89250000D03*
%TD*%
D16*
%TO.P,R13,1*%
%TO.N,Net-(R13-Pad1)*%
X118450000Y-94690000D03*
%TO.P,R13,2*%
%TO.N,Net-(SW2-A)*%
X121550000Y-94690000D03*
%TD*%
%TO.P,R8,1*%
%TO.N,Net-(U5-C)*%
X193450000Y-93000000D03*
%TO.P,R8,2*%
%TO.N,Net-(U4-c)*%
X196550000Y-93000000D03*
%TD*%
%TO.P,R10,1*%
%TO.N,Net-(U2B-J)*%
X118450000Y-91000000D03*
%TO.P,R10,2*%
%TO.N,+5V*%
X121550000Y-91000000D03*
%TD*%
%TO.P,R17,1*%
%TO.N,Net-(U4-f)*%
X175450000Y-87000000D03*
%TO.P,R17,2*%
%TO.N,Net-(U5-F)*%
X178550000Y-87000000D03*
%TD*%
D17*
%TO.P,U6,1,A*%
%TO.N,Q3*%
X119000000Y-77050000D03*
%TO.P,U6,2,GND*%
%TO.N,GND*%
X119000000Y-78000000D03*
%TO.P,U6,3,B*%
%TO.N,Clock*%
X119000000Y-78950000D03*
%TO.P,U6,4,Y*%
%TO.N,Reset*%
X121275000Y-78950000D03*
%TO.P,U6,5,VCC*%
%TO.N,+5V*%
X121275000Y-78000000D03*
%TO.P,U6,6,C*%
%TO.N,Q1*%
X121275000Y-77050000D03*
%TD*%
D16*
%TO.P,R6,1*%
%TO.N,Net-(U4-b)*%
X193450000Y-90000000D03*
%TO.P,R6,2*%
%TO.N,Net-(U5-B)*%
X196550000Y-90000000D03*
%TD*%
D18*
%TO.P,R3,1*%
%TO.N,Net-(D3-K)*%
X145000000Y-65160000D03*
%TO.P,R3,2*%
%TO.N,GND*%
X145000000Y-55000000D03*
%TD*%
D19*
%TO.P,C2,1*%
%TO.N,+5V*%
X167000000Y-117000000D03*
D18*
%TO.P,C2,2*%
%TO.N,GND*%
X167000000Y-119000000D03*
%TD*%
D16*
%TO.P,R19,1*%
%TO.N,+5V*%
X125450000Y-105690000D03*
%TO.P,R19,2*%
%TO.N,Net-(U7-DIS)*%
X128550000Y-105690000D03*
%TD*%
D20*
%TO.P,R15,1*%
%TO.N,+5V*%
X179000000Y-77000000D03*
%TO.P,R15,2*%
%TO.N,Net-(U4-BI)*%
X175900000Y-77000000D03*
%TD*%
D21*
%TO.P,U7,1,GND*%
%TO.N,GND*%
X132195000Y-105190000D03*
D18*
%TO.P,U7,2,TR*%
%TO.N,Net-(U7-THR)*%
X132195000Y-107730000D03*
%TO.P,U7,3,Q*%
%TO.N,555*%
X132195000Y-110270000D03*
%TO.P,U7,4,R*%
%TO.N,+5V*%
X132195000Y-112810000D03*
%TO.P,U7,5,CV*%
%TO.N,unconnected-(U7-CV-Pad5)*%
X139815000Y-112810000D03*
%TO.P,U7,6,THR*%
%TO.N,Net-(U7-THR)*%
X139815000Y-110270000D03*
%TO.P,U7,7,DIS*%
%TO.N,Net-(U7-DIS)*%
X139815000Y-107730000D03*
%TO.P,U7,8,VCC*%
%TO.N,+5V*%
X139815000Y-105190000D03*
%TD*%
%TO.P,R4,1*%
%TO.N,Net-(D5-K)*%
X139000000Y-65160000D03*
%TO.P,R4,2*%
%TO.N,GND*%
X139000000Y-55000000D03*
%TD*%
D22*
%TO.P,U3,1,Q*%
%TO.N,Q2*%
X146190000Y-82110000D03*
D23*
%TO.P,U3,2,~{Q}*%
%TO.N,unconnected-(U3A-~{Q}-Pad2)*%
X146190000Y-84650000D03*
%TO.P,U3,3,C*%
%TO.N,Q1*%
X146190000Y-87190000D03*
%TO.P,U3,4,R*%
%TO.N,Reset*%
X146190000Y-89730000D03*
%TO.P,U3,5,K*%
%TO.N,Net-(U3A-J)*%
X146190000Y-92270000D03*
%TO.P,U3,6,J*%
X146190000Y-94810000D03*
%TO.P,U3,7,S*%
%TO.N,GND*%
X146190000Y-97350000D03*
%TO.P,U3,8,VSS*%
X146190000Y-99890000D03*
%TO.P,U3,9,S*%
X153810000Y-99890000D03*
%TO.P,U3,10,J*%
%TO.N,Net-(U3B-J)*%
X153810000Y-97350000D03*
%TO.P,U3,11,K*%
X153810000Y-94810000D03*
%TO.P,U3,12,R*%
%TO.N,Reset*%
X153810000Y-92270000D03*
%TO.P,U3,13,C*%
%TO.N,Q2*%
X153810000Y-89730000D03*
%TO.P,U3,14,~{Q}*%
%TO.N,unconnected-(U3B-~{Q}-Pad14)*%
X153810000Y-87190000D03*
%TO.P,U3,15,Q*%
%TO.N,Q3*%
X153810000Y-84650000D03*
%TO.P,U3,16,VDD*%
%TO.N,+5V*%
X153810000Y-82110000D03*
%TD*%
D22*
%TO.P,U4,1,B*%
%TO.N,Q1*%
X160190000Y-82110000D03*
D23*
%TO.P,U4,2,C*%
%TO.N,Q2*%
X160190000Y-84650000D03*
%TO.P,U4,3,LT*%
%TO.N,Net-(U4-BI)*%
X160190000Y-87190000D03*
%TO.P,U4,4,BI*%
X160190000Y-89730000D03*
%TO.P,U4,5,RBI*%
X160190000Y-92270000D03*
%TO.P,U4,6,D*%
%TO.N,Q3*%
X160190000Y-94810000D03*
%TO.P,U4,7,A*%
%TO.N,Q0*%
X160190000Y-97350000D03*
%TO.P,U4,8,GND*%
%TO.N,GND*%
X160190000Y-99890000D03*
%TO.P,U4,9,e*%
%TO.N,Net-(U4-e)*%
X167810000Y-99890000D03*
%TO.P,U4,10,d*%
%TO.N,Net-(U4-d)*%
X167810000Y-97350000D03*
%TO.P,U4,11,c*%
%TO.N,Net-(U4-c)*%
X167810000Y-94810000D03*
%TO.P,U4,12,b*%
%TO.N,Net-(U4-b)*%
X167810000Y-92270000D03*
%TO.P,U4,13,a*%
%TO.N,Net-(U4-a)*%
X167810000Y-89730000D03*
%TO.P,U4,14,g*%
%TO.N,Net-(U4-g)*%
X167810000Y-87190000D03*
%TO.P,U4,15,f*%
%TO.N,Net-(U4-f)*%
X167810000Y-84650000D03*
%TO.P,U4,16,VCC*%
%TO.N,+5V*%
X167810000Y-82110000D03*
%TD*%
D22*
%TO.P,U1,1,FB*%
%TO.N,+5V*%
X146190000Y-105190000D03*
D23*
%TO.P,U1,2,SGND*%
%TO.N,GND*%
X146190000Y-107730000D03*
%TO.P,U1,3,~{ON}/OFF*%
X146190000Y-110270000D03*
%TO.P,U1,4,PGND*%
X146190000Y-112810000D03*
%TO.P,U1,5,VIN*%
%TO.N,VD*%
X153810000Y-112810000D03*
%TO.P,U1,6,NC*%
%TO.N,unconnected-(U1-NC-Pad6)*%
X153810000Y-110270000D03*
%TO.P,U1,7,OUT*%
%TO.N,Net-(D4-K)*%
X153810000Y-107730000D03*
%TO.P,U1,8,NC*%
%TO.N,unconnected-(U1-NC-Pad8)*%
X153810000Y-105190000D03*
%TD*%
D16*
%TO.P,R14,1*%
%TO.N,Net-(U4-d)*%
X175450000Y-93000000D03*
%TO.P,R14,2*%
%TO.N,Net-(U5-D)*%
X178550000Y-93000000D03*
%TD*%
D21*
%TO.P,C1,1*%
%TO.N,VD*%
X166000000Y-126000000D03*
D18*
%TO.P,C1,2*%
%TO.N,GND*%
X168000000Y-126000000D03*
%TD*%
D24*
%TO.P,U5,1,CA*%
%TO.N,+5V*%
X183532500Y-84982500D03*
D18*
%TO.P,U5,2,F*%
%TO.N,Net-(U5-F)*%
X183532500Y-87522500D03*
%TO.P,U5,3,G*%
%TO.N,Net-(U5-G)*%
X183532500Y-90062500D03*
%TO.P,U5,4,E*%
%TO.N,Net-(U5-E)*%
X183532500Y-92602500D03*
%TO.P,U5,5,D*%
%TO.N,Net-(U5-D)*%
X183532500Y-95142500D03*
%TO.P,U5,6,CA*%
%TO.N,+5V*%
X188612500Y-95142500D03*
%TO.P,U5,7,DP*%
%TO.N,unconnected-(U5-DP-Pad7)*%
X188612500Y-92602500D03*
%TO.P,U5,8,C*%
%TO.N,Net-(U5-C)*%
X188612500Y-90062500D03*
%TO.P,U5,9,B*%
%TO.N,Net-(U5-B)*%
X188612500Y-87522500D03*
%TO.P,U5,10,A*%
%TO.N,Net-(U5-A)*%
X188612500Y-84982500D03*
%TD*%
D14*
%TO.P,D2,1,K*%
%TO.N,Net-(D2-K)*%
X151470000Y-71460000D03*
D13*
%TO.P,D2,2,A*%
%TO.N,Q1*%
X151470000Y-74000000D03*
%TD*%
D25*
%TO.P,D4,1,K*%
%TO.N,Net-(D4-K)*%
X127650000Y-126000000D03*
D26*
%TO.P,D4,2,A*%
%TO.N,GND*%
X140350000Y-126000000D03*
%TD*%
D27*
%TO.P,C3,1*%
%TO.N,GND*%
X118437500Y-102000000D03*
%TO.P,C3,2*%
%TO.N,Net-(SW2-A)*%
X121562500Y-102000000D03*
%TD*%
D16*
%TO.P,R5,1*%
%TO.N,Net-(U4-a)*%
X193450000Y-87000000D03*
%TO.P,R5,2*%
%TO.N,Net-(U5-A)*%
X196550000Y-87000000D03*
%TD*%
D27*
%TO.P,C4,1*%
%TO.N,+5V*%
X118437500Y-106000000D03*
%TO.P,C4,2*%
%TO.N,GND*%
X121562500Y-106000000D03*
%TD*%
D18*
%TO.P,R2,1*%
%TO.N,Net-(D2-K)*%
X151000000Y-65160000D03*
%TO.P,R2,2*%
%TO.N,GND*%
X151000000Y-55000000D03*
%TD*%
D20*
%TO.P,R11,1*%
%TO.N,Net-(U3A-J)*%
X165550000Y-110310000D03*
%TO.P,R11,2*%
%TO.N,+5V*%
X162450000Y-110310000D03*
%TD*%
D16*
%TO.P,R16,1*%
%TO.N,Net-(U4-e)*%
X175450000Y-96500000D03*
%TO.P,R16,2*%
%TO.N,Net-(U5-E)*%
X178550000Y-96500000D03*
%TD*%
%TO.P,R20,1*%
%TO.N,Net-(U7-DIS)*%
X125450000Y-109000000D03*
%TO.P,R20,2*%
%TO.N,Net-(U7-THR)*%
X128550000Y-109000000D03*
%TD*%
D20*
%TO.P,R12,1*%
%TO.N,Net-(U3B-J)*%
X165550000Y-107000000D03*
%TO.P,R12,2*%
%TO.N,+5V*%
X162450000Y-107000000D03*
%TD*%
D14*
%TO.P,D5,1,K*%
%TO.N,Net-(D5-K)*%
X136530000Y-71460000D03*
D13*
%TO.P,D5,2,A*%
%TO.N,Q3*%
X136530000Y-74000000D03*
%TD*%
D18*
%TO.P,R1,1*%
%TO.N,Net-(D1-K)*%
X157000000Y-65160000D03*
%TO.P,R1,2*%
%TO.N,GND*%
X157000000Y-55000000D03*
%TD*%
D27*
%TO.P,C5,1*%
%TO.N,Net-(U7-THR)*%
X118437500Y-109350000D03*
%TO.P,C5,2*%
%TO.N,GND*%
X121562500Y-109350000D03*
%TD*%
D16*
%TO.P,R18,1*%
%TO.N,Net-(U4-g)*%
X175450000Y-90000000D03*
%TO.P,R18,2*%
%TO.N,Net-(U5-G)*%
X178550000Y-90000000D03*
%TD*%
D14*
%TO.P,D1,1,K*%
%TO.N,Net-(D1-K)*%
X158940000Y-71460000D03*
D13*
%TO.P,D1,2,A*%
%TO.N,Q0*%
X158940000Y-74000000D03*
%TD*%
D28*
%TO.P,J1,1,Pin_1*%
%TO.N,GND*%
X150500000Y-125117500D03*
D29*
%TO.P,J1,2,Pin_2*%
%TO.N,VD*%
X155500000Y-125117500D03*
%TD*%
D16*
%TO.P,R9,1*%
%TO.N,Net-(U2A-J)*%
X118450000Y-87690000D03*
%TO.P,R9,2*%
%TO.N,+5V*%
X121550000Y-87690000D03*
%TD*%
%TO.P,R7,1*%
%TO.N,Clock*%
X118450000Y-98000000D03*
%TO.P,R7,2*%
%TO.N,+5V*%
X121550000Y-98000000D03*
%TD*%
D30*
%TO.P,L1,1,1*%
%TO.N,Net-(D4-K)*%
X123500000Y-118000000D03*
%TO.P,L1,2,2*%
%TO.N,+5V*%
X120500000Y-118000000D03*
%TD*%
D22*
%TO.P,U2,1,Q*%
%TO.N,Q0*%
X132190000Y-82110000D03*
D23*
%TO.P,U2,2,~{Q}*%
%TO.N,unconnected-(U2A-~{Q}-Pad2)*%
X132190000Y-84650000D03*
%TO.P,U2,3,C*%
%TO.N,Clock*%
X132190000Y-87190000D03*
%TO.P,U2,4,R*%
%TO.N,Reset*%
X132190000Y-89730000D03*
%TO.P,U2,5,K*%
%TO.N,Net-(U2A-J)*%
X132190000Y-92270000D03*
%TO.P,U2,6,J*%
X132190000Y-94810000D03*
%TO.P,U2,7,S*%
%TO.N,GND*%
X132190000Y-97350000D03*
%TO.P,U2,8,VSS*%
X132190000Y-99890000D03*
%TO.P,U2,9,S*%
X139810000Y-99890000D03*
%TO.P,U2,10,J*%
%TO.N,Net-(U2B-J)*%
X139810000Y-97350000D03*
%TO.P,U2,11,K*%
X139810000Y-94810000D03*
%TO.P,U2,12,R*%
%TO.N,Reset*%
X139810000Y-92270000D03*
%TO.P,U2,13,C*%
%TO.N,Q0*%
X139810000Y-89730000D03*
%TO.P,U2,14,~{Q}*%
%TO.N,unconnected-(U2B-~{Q}-Pad14)*%
X139810000Y-87190000D03*
%TO.P,U2,15,Q*%
%TO.N,Q1*%
X139810000Y-84650000D03*
%TO.P,U2,16,VDD*%
%TO.N,+5V*%
X139810000Y-82110000D03*
%TD*%
D31*
%TO.N,Net-(U2A-J)*%
X135000000Y-92500000D03*
X135000000Y-94500000D03*
%TO.N,GND*%
X122500000Y-108000000D03*
X120000000Y-107500000D03*
X125000000Y-102000000D03*
X123000000Y-104500000D03*
%TO.N,Q2*%
X156000000Y-92000000D03*
X156500000Y-90000000D03*
%TO.N,Q0*%
X162500000Y-83500000D03*
X163000000Y-85500000D03*
%TO.N,Net-(U3A-J)*%
X149500000Y-99000000D03*
X161500000Y-102000000D03*
%TO.N,Q0*%
X148000000Y-91000000D03*
X143500000Y-91000000D03*
%TO.N,Q1*%
X145500000Y-77000000D03*
X141500000Y-78500000D03*
%TO.N,+5V*%
X145500000Y-79500000D03*
X143500000Y-81000000D03*
%TO.N,Clock*%
X120900000Y-84000000D03*
X129000000Y-85000000D03*
%TO.N,Net-(U7-DIS)*%
X125000000Y-103500000D03*
X124000000Y-105000000D03*
%TO.N,Net-(D4-K)*%
X157000000Y-116500000D03*
X153000000Y-116500000D03*
%TO.N,Net-(U5-B)*%
X191500000Y-86000000D03*
X191500000Y-84000000D03*
%TO.N,Net-(U5-C)*%
X193500000Y-95500000D03*
X191000000Y-95000000D03*
%TO.N,Net-(U5-E)*%
X180500000Y-94000000D03*
X180500000Y-92350000D03*
%TO.N,Net-(U4-d)*%
X170000000Y-99000000D03*
X173000000Y-96500000D03*
%TO.N,Net-(U4-e)*%
X175000000Y-103000000D03*
X175500000Y-99000000D03*
%TO.N,+5V*%
X155000000Y-80000000D03*
X167000000Y-80000000D03*
%TO.N,Reset*%
X124000000Y-81500000D03*
X122000000Y-80000000D03*
%TO.N,Net-(U2A-J)*%
X119000000Y-86000000D03*
X123000000Y-86000000D03*
%TO.N,Net-(U2B-J)*%
X125000000Y-93000000D03*
X118000000Y-93000000D03*
%TO.N,Net-(SW2-A)*%
X123000000Y-99500000D03*
X123000000Y-96500000D03*
%TO.N,555*%
X130919240Y-110615000D03*
X124000000Y-113000000D03*
%TO.N,Net-(U7-THR)*%
X129850000Y-109500000D03*
X130500000Y-108000000D03*
%TO.N,Net-(U7-DIS)*%
X137500000Y-108500000D03*
X136000000Y-107500000D03*
%TO.N,Net-(U7-THR)*%
X135000000Y-109000000D03*
X136000000Y-110000000D03*
%TO.N,Q3*%
X143000000Y-78500000D03*
X150500000Y-84000000D03*
%TO.N,Q1*%
X142500000Y-86500000D03*
X142500000Y-82500000D03*
%TD*%
D32*
%TO.N,Net-(U2A-J)*%
X134500000Y-94500000D02*
X134190000Y-94810000D01*
X135000000Y-94500000D02*
X134500000Y-94500000D01*
X132420000Y-92500000D02*
X135000000Y-92500000D01*
X134190000Y-94810000D02*
X132190000Y-94810000D01*
X132190000Y-92270000D02*
X132420000Y-92500000D01*
%TO.N,GND*%
X117000000Y-78000000D02*
X119000000Y-78000000D01*
X110250000Y-84750000D02*
X117000000Y-78000000D01*
X121562500Y-107062500D02*
X121562500Y-106000000D01*
X122500000Y-108000000D02*
X121562500Y-107062500D01*
X118088840Y-107500000D02*
X120000000Y-107500000D01*
X117474000Y-106885160D02*
X118088840Y-107500000D01*
X117474000Y-102963500D02*
X117474000Y-106885160D01*
X118437500Y-102000000D02*
X117474000Y-102963500D01*
X125000000Y-102000000D02*
X129005000Y-102000000D01*
X121562500Y-105937500D02*
X123000000Y-104500000D01*
X121562500Y-106000000D02*
X121562500Y-105937500D01*
X129005000Y-102000000D02*
X132195000Y-105190000D01*
X121562500Y-109350000D02*
X121562500Y-106000000D01*
%TO.N,Q2*%
X156500000Y-88340000D02*
X160190000Y-84650000D01*
X156500000Y-90000000D02*
X156500000Y-88340000D01*
X153810000Y-89810000D02*
X156000000Y-92000000D01*
X153810000Y-89730000D02*
X153810000Y-89810000D01*
%TO.N,Q0*%
X162500000Y-77560000D02*
X158940000Y-74000000D01*
X162500000Y-83500000D02*
X162500000Y-77560000D01*
X163000000Y-94540000D02*
X163000000Y-85500000D01*
X160190000Y-97350000D02*
X163000000Y-94540000D01*
%TO.N,Net-(U3A-J)*%
X146810000Y-94810000D02*
X146190000Y-94810000D01*
X149500000Y-99000000D02*
X149500000Y-97500000D01*
X162500000Y-102000000D02*
X161500000Y-102000000D01*
X149500000Y-97500000D02*
X146810000Y-94810000D01*
X166501000Y-109359000D02*
X166501000Y-106001000D01*
X165550000Y-110310000D02*
X166501000Y-109359000D01*
X166501000Y-106001000D02*
X162500000Y-102000000D01*
%TO.N,Q0*%
X142230000Y-89730000D02*
X139810000Y-89730000D01*
X143500000Y-91000000D02*
X142230000Y-89730000D01*
X150500000Y-93500000D02*
X148000000Y-91000000D01*
X156340000Y-93500000D02*
X150500000Y-93500000D01*
X160190000Y-97350000D02*
X156340000Y-93500000D01*
%TO.N,Q1*%
X148470000Y-77000000D02*
X151470000Y-74000000D01*
X145500000Y-77000000D02*
X148470000Y-77000000D01*
X141500000Y-80500000D02*
X141500000Y-78500000D01*
X141311000Y-80689000D02*
X141500000Y-80500000D01*
%TO.N,Q3*%
X138500000Y-74000000D02*
X136530000Y-74000000D01*
X143000000Y-78500000D02*
X138500000Y-74000000D01*
%TO.N,+5V*%
X138953951Y-85751000D02*
X138309000Y-85106049D01*
X140666049Y-85751000D02*
X138953951Y-85751000D01*
X138309000Y-85106049D02*
X138309000Y-83611000D01*
X143500000Y-82917049D02*
X140666049Y-85751000D01*
X138309000Y-83611000D02*
X139810000Y-82110000D01*
X143500000Y-81000000D02*
X143500000Y-82917049D01*
X151200000Y-79500000D02*
X145500000Y-79500000D01*
X153810000Y-82110000D02*
X151200000Y-79500000D01*
%TO.N,Clock*%
X120900000Y-83900000D02*
X120500000Y-83500000D01*
X120900000Y-84000000D02*
X120900000Y-83900000D01*
X131190000Y-87190000D02*
X129000000Y-85000000D01*
X132190000Y-87190000D02*
X131190000Y-87190000D01*
%TO.N,Net-(U7-DIS)*%
X126360000Y-103500000D02*
X128550000Y-105690000D01*
X125000000Y-103500000D02*
X126360000Y-103500000D01*
X124000000Y-107550000D02*
X124000000Y-105000000D01*
X125450000Y-109000000D02*
X124000000Y-107550000D01*
%TO.N,Net-(D4-K)*%
X157000000Y-110920000D02*
X153810000Y-107730000D01*
X157000000Y-116500000D02*
X157000000Y-110920000D01*
X147500000Y-122000000D02*
X153000000Y-116500000D01*
X127500000Y-122000000D02*
X123500000Y-118000000D01*
X127500000Y-122000000D02*
X147500000Y-122000000D01*
%TO.N,Net-(U5-B)*%
X190135000Y-86000000D02*
X188612500Y-87522500D01*
X191500000Y-86000000D02*
X190135000Y-86000000D01*
X195361160Y-84000000D02*
X191500000Y-84000000D01*
X197501000Y-86139840D02*
X195361160Y-84000000D01*
X196550000Y-90000000D02*
X197501000Y-89049000D01*
X197501000Y-89049000D02*
X197501000Y-86139840D01*
%TO.N,Net-(U5-C)*%
X193450000Y-95450000D02*
X193450000Y-93000000D01*
X193500000Y-95500000D02*
X193450000Y-95450000D01*
X191000000Y-92450000D02*
X191000000Y-95000000D01*
X188612500Y-90062500D02*
X191000000Y-92450000D01*
%TO.N,Net-(U5-E)*%
X183280000Y-92350000D02*
X183532500Y-92602500D01*
X180500000Y-92350000D02*
X183280000Y-92350000D01*
X180500000Y-94550000D02*
X180500000Y-94000000D01*
X178550000Y-96500000D02*
X180500000Y-94550000D01*
%TO.N,Net-(U4-d)*%
X168350000Y-97350000D02*
X167810000Y-97350000D01*
X170000000Y-99000000D02*
X168350000Y-97350000D01*
X175450000Y-93000000D02*
X175450000Y-94050000D01*
X175450000Y-94050000D02*
X173000000Y-96500000D01*
%TO.N,Net-(U4-e)*%
X174000000Y-103000000D02*
X170890000Y-99890000D01*
X175000000Y-103000000D02*
X174000000Y-103000000D01*
X175450000Y-98950000D02*
X175500000Y-99000000D01*
X175450000Y-96500000D02*
X175450000Y-98950000D01*
X170890000Y-99890000D02*
X167810000Y-99890000D01*
%TO.N,+5V*%
X167810000Y-80810000D02*
X167810000Y-82110000D01*
X167000000Y-80000000D02*
X167810000Y-80810000D01*
X153810000Y-82110000D02*
X155000000Y-80920000D01*
X155000000Y-80920000D02*
X155000000Y-80000000D01*
%TO.N,Reset*%
X122000000Y-79675000D02*
X121275000Y-78950000D01*
X122000000Y-80000000D02*
X122000000Y-79675000D01*
X132190000Y-89690000D02*
X124000000Y-81500000D01*
%TO.N,Net-(U2A-J)*%
X119000000Y-87140000D02*
X118450000Y-87690000D01*
X119000000Y-86000000D02*
X119000000Y-87140000D01*
X129270000Y-92270000D02*
X123000000Y-86000000D01*
X132190000Y-92270000D02*
X129270000Y-92270000D01*
%TO.N,Net-(U2B-J)*%
X118450000Y-92550000D02*
X118450000Y-91000000D01*
X118000000Y-93000000D02*
X118450000Y-92550000D01*
X125709000Y-93709000D02*
X125000000Y-93000000D01*
X138709000Y-93709000D02*
X125709000Y-93709000D01*
X139810000Y-94810000D02*
X138709000Y-93709000D01*
%TO.N,Net-(SW2-A)*%
X123000000Y-99500000D02*
X123000000Y-100562500D01*
X123000000Y-100562500D02*
X121562500Y-102000000D01*
X121550000Y-95050000D02*
X123000000Y-96500000D01*
%TO.N,555*%
X131850000Y-110615000D02*
X132195000Y-110270000D01*
X130919240Y-110615000D02*
X131850000Y-110615000D01*
X101499000Y-94472187D02*
X101499000Y-100499000D01*
X102319687Y-93651500D02*
X101499000Y-94472187D01*
X101499000Y-100499000D02*
X114000000Y-113000000D01*
X104949000Y-93651500D02*
X102319687Y-93651500D01*
X114000000Y-113000000D02*
X124000000Y-113000000D01*
X107000000Y-95702500D02*
X104949000Y-93651500D01*
%TO.N,Net-(U7-THR)*%
X131925000Y-108000000D02*
X132195000Y-107730000D01*
X130500000Y-108000000D02*
X131925000Y-108000000D01*
X129350000Y-109000000D02*
X129850000Y-109500000D01*
X128550000Y-109000000D02*
X129350000Y-109000000D01*
%TO.N,Net-(U7-DIS)*%
X138270000Y-107730000D02*
X139815000Y-107730000D01*
X137500000Y-108500000D02*
X138270000Y-107730000D01*
X129360000Y-106500000D02*
X135000000Y-106500000D01*
X135000000Y-106500000D02*
X136000000Y-107500000D01*
X128550000Y-105690000D02*
X129360000Y-106500000D01*
%TO.N,Net-(U7-THR)*%
X136270000Y-110270000D02*
X139815000Y-110270000D01*
X136000000Y-110000000D02*
X136270000Y-110270000D01*
X133730000Y-107730000D02*
X135000000Y-109000000D01*
X132195000Y-107730000D02*
X133730000Y-107730000D01*
%TO.N,Q3*%
X151150000Y-84650000D02*
X150500000Y-84000000D01*
X153810000Y-84650000D02*
X151150000Y-84650000D01*
%TO.N,Q1*%
X143190000Y-87190000D02*
X146190000Y-87190000D01*
X142500000Y-86500000D02*
X143190000Y-87190000D01*
X142000000Y-83000000D02*
X142500000Y-82500000D01*
X141311000Y-83000000D02*
X142000000Y-83000000D01*
X141311000Y-83000000D02*
X141311000Y-83149000D01*
%TO.N,GND*%
X149617500Y-126000000D02*
X150500000Y-125117500D01*
X132195000Y-99895000D02*
X132190000Y-99890000D01*
%TO.N,VD*%
X166000000Y-126000000D02*
X165500000Y-126000000D01*
X165500000Y-126000000D02*
X164617500Y-125117500D01*
X155500000Y-125117500D02*
X155500000Y-114500000D01*
X155500000Y-114500000D02*
X153810000Y-112810000D01*
X164617500Y-125117500D02*
X155500000Y-125117500D01*
%TO.N,+5V*%
X130500000Y-109138840D02*
X130500000Y-110115000D01*
X135700000Y-78000000D02*
X139810000Y-82110000D01*
X123000000Y-98000000D02*
X124000000Y-99000000D01*
X121550000Y-81950000D02*
X123500000Y-80000000D01*
X123250000Y-103250000D02*
X124000000Y-102500000D01*
X126760000Y-107000000D02*
X128361160Y-107000000D01*
X122690000Y-87690000D02*
X121550000Y-87690000D01*
X120500000Y-118000000D02*
X127885000Y-110615000D01*
X124000000Y-99000000D02*
X124000000Y-90500000D01*
X132195000Y-112810000D02*
X139815000Y-105190000D01*
X125450000Y-105690000D02*
X125450000Y-105450000D01*
X123500000Y-91000000D02*
X124000000Y-90500000D01*
X179000000Y-77000000D02*
X179000000Y-80450000D01*
X162450000Y-110450000D02*
X167000000Y-115000000D01*
X167000000Y-115000000D02*
X167000000Y-117000000D01*
X139815000Y-105190000D02*
X146190000Y-105190000D01*
X121550000Y-98000000D02*
X123000000Y-98000000D01*
X124000000Y-102500000D02*
X124000000Y-99000000D01*
X179000000Y-80450000D02*
X183532500Y-84982500D01*
X122500000Y-104000000D02*
X123250000Y-103250000D01*
X127885000Y-110615000D02*
X130000000Y-110615000D01*
X125450000Y-105690000D02*
X126760000Y-107000000D01*
X121937499Y-78000000D02*
X121275000Y-78000000D01*
X173890000Y-82110000D02*
X179000000Y-77000000D01*
X121550000Y-91000000D02*
X123500000Y-91000000D01*
X167810000Y-82110000D02*
X173890000Y-82110000D01*
X124000000Y-89000000D02*
X122690000Y-87690000D01*
X120437500Y-104000000D02*
X122500000Y-104000000D01*
X148380000Y-103000000D02*
X158450000Y-103000000D01*
X158450000Y-103000000D02*
X162450000Y-107000000D01*
X188612500Y-95142500D02*
X186000000Y-92530000D01*
X162450000Y-107000000D02*
X162450000Y-110310000D01*
X128361160Y-107000000D02*
X130500000Y-109138840D01*
X121550000Y-87690000D02*
X121550000Y-81950000D01*
X130500000Y-110115000D02*
X130000000Y-110615000D01*
X162450000Y-110310000D02*
X162450000Y-110450000D01*
X118437500Y-106000000D02*
X120437500Y-104000000D01*
X186000000Y-87450000D02*
X183532500Y-84982500D01*
X123500000Y-80000000D02*
X123500000Y-79562501D01*
X130000000Y-110615000D02*
X132195000Y-112810000D01*
X121275000Y-78000000D02*
X135700000Y-78000000D01*
X124000000Y-90500000D02*
X124000000Y-89000000D01*
X146190000Y-105190000D02*
X148380000Y-103000000D01*
X125450000Y-105450000D02*
X123250000Y-103250000D01*
X123500000Y-79562501D02*
X121937499Y-78000000D01*
X186000000Y-92530000D02*
X186000000Y-87450000D01*
%TO.N,Net-(SW2-A)*%
X119163500Y-99601000D02*
X121562500Y-102000000D01*
X105000000Y-95702500D02*
X108898500Y-99601000D01*
X121550000Y-94690000D02*
X121550000Y-95050000D01*
X108898500Y-99601000D02*
X119163500Y-99601000D01*
%TO.N,Net-(U7-THR)*%
X120087500Y-111000000D02*
X126550000Y-111000000D01*
X126550000Y-111000000D02*
X128550000Y-109000000D01*
X118437500Y-109350000D02*
X120087500Y-111000000D01*
%TO.N,Q0*%
X132190000Y-82110000D02*
X139810000Y-89730000D01*
%TO.N,Net-(D1-K)*%
X158940000Y-67100000D02*
X157000000Y-65160000D01*
X158940000Y-71460000D02*
X158940000Y-67100000D01*
%TO.N,Net-(D2-K)*%
X151470000Y-65630000D02*
X151000000Y-65160000D01*
X151470000Y-71460000D02*
X151470000Y-65630000D01*
%TO.N,Q1*%
X141311000Y-83149000D02*
X139810000Y-84650000D01*
X136707049Y-77050000D02*
X141311000Y-81653951D01*
X151470000Y-74000000D02*
X159580000Y-82110000D01*
X141311000Y-80689000D02*
X141311000Y-81653951D01*
X159580000Y-82110000D02*
X160190000Y-82110000D01*
X141311000Y-81653951D02*
X141311000Y-83000000D01*
X121275000Y-77050000D02*
X136707049Y-77050000D01*
%TO.N,Net-(D3-K)*%
X144000000Y-66160000D02*
X145000000Y-65160000D01*
X144000000Y-71460000D02*
X144000000Y-66160000D01*
%TO.N,Q2*%
X146190000Y-82110000D02*
X153810000Y-89730000D01*
X154230000Y-89730000D02*
X153810000Y-89730000D01*
X144000000Y-74000000D02*
X144000000Y-79920000D01*
X144000000Y-79920000D02*
X146190000Y-82110000D01*
%TO.N,Net-(D4-K)*%
X127650000Y-126000000D02*
X127650000Y-122150000D01*
X127650000Y-122150000D02*
X127500000Y-122000000D01*
%TO.N,Net-(D5-K)*%
X136530000Y-67630000D02*
X139000000Y-65160000D01*
X136530000Y-71460000D02*
X136530000Y-67630000D01*
%TO.N,Q3*%
X155311000Y-89931000D02*
X160190000Y-94810000D01*
X155311000Y-86151000D02*
X155311000Y-89931000D01*
X122050000Y-74000000D02*
X136530000Y-74000000D01*
X119000000Y-77050000D02*
X122050000Y-74000000D01*
X153810000Y-84650000D02*
X155311000Y-86151000D01*
%TO.N,Net-(U4-a)*%
X169730000Y-89730000D02*
X167810000Y-89730000D01*
X174500000Y-100000000D02*
X172000000Y-97500000D01*
X188000000Y-100000000D02*
X174500000Y-100000000D01*
X192000000Y-96000000D02*
X188000000Y-100000000D01*
X192000000Y-88450000D02*
X192000000Y-96000000D01*
X172000000Y-97500000D02*
X172000000Y-92000000D01*
X172000000Y-92000000D02*
X169730000Y-89730000D01*
X193450000Y-87000000D02*
X192000000Y-88450000D01*
%TO.N,Net-(U5-A)*%
X196550000Y-87000000D02*
X194532500Y-84982500D01*
X194532500Y-84982500D02*
X188612500Y-84982500D01*
%TO.N,Net-(U4-b)*%
X171500000Y-93500000D02*
X170270000Y-92270000D01*
X188000000Y-101000000D02*
X174500000Y-101000000D01*
X192499000Y-90951000D02*
X192499000Y-96501000D01*
X171500000Y-98000000D02*
X171500000Y-93500000D01*
X170270000Y-92270000D02*
X167810000Y-92270000D01*
X192499000Y-96501000D02*
X188000000Y-101000000D01*
X174500000Y-101000000D02*
X171500000Y-98000000D01*
X193450000Y-90000000D02*
X192499000Y-90951000D01*
%TO.N,Clock*%
X120000000Y-96500000D02*
X120000000Y-84000000D01*
X109000000Y-97152500D02*
X109847500Y-98000000D01*
X120000000Y-84000000D02*
X120500000Y-83500000D01*
X118450000Y-98000000D02*
X119950000Y-96500000D01*
X119950000Y-96500000D02*
X120000000Y-96500000D01*
X109847500Y-98000000D02*
X118450000Y-98000000D01*
X119000000Y-78950000D02*
X120500000Y-80450000D01*
X109000000Y-95702500D02*
X109000000Y-97152500D01*
X120500000Y-80450000D02*
X120500000Y-83500000D01*
%TO.N,Net-(U4-c)*%
X174500000Y-102000000D02*
X191500000Y-102000000D01*
X170500000Y-98000000D02*
X174500000Y-102000000D01*
X196550000Y-96950000D02*
X196550000Y-93000000D01*
X191500000Y-102000000D02*
X196550000Y-96950000D01*
X170500000Y-97500000D02*
X170500000Y-98000000D01*
X167810000Y-94810000D02*
X170500000Y-97500000D01*
%TO.N,Net-(U2B-J)*%
X139810000Y-94810000D02*
X139810000Y-97350000D01*
%TO.N,Net-(U3A-J)*%
X146190000Y-94810000D02*
X146190000Y-92270000D01*
%TO.N,Net-(U3B-J)*%
X165550000Y-107000000D02*
X164500000Y-107000000D01*
X156500000Y-101000000D02*
X156500000Y-100040000D01*
X156500000Y-100040000D02*
X153810000Y-97350000D01*
X159500000Y-102000000D02*
X157500000Y-102000000D01*
X164500000Y-107000000D02*
X159500000Y-102000000D01*
X157500000Y-102000000D02*
X156500000Y-101000000D01*
X153810000Y-97350000D02*
X153810000Y-94810000D01*
%TO.N,Net-(R13-Pad1)*%
X116190000Y-94690000D02*
X118450000Y-94690000D01*
X103750000Y-89250000D02*
X110250000Y-89250000D01*
X110750000Y-89250000D02*
X116190000Y-94690000D01*
X110250000Y-89250000D02*
X110750000Y-89250000D01*
%TO.N,Net-(U4-d)*%
X175450000Y-93000000D02*
X175000000Y-93000000D01*
%TO.N,Net-(U5-D)*%
X178550000Y-93000000D02*
X181390000Y-93000000D01*
X181390000Y-93000000D02*
X183532500Y-95142500D01*
%TO.N,Net-(U4-BI)*%
X168000000Y-77000000D02*
X163500000Y-81500000D01*
X163500000Y-83880000D02*
X160190000Y-87190000D01*
X175900000Y-77000000D02*
X168000000Y-77000000D01*
X160190000Y-89730000D02*
X160190000Y-87190000D01*
X163500000Y-81500000D02*
X163500000Y-83880000D01*
X160190000Y-92270000D02*
X160190000Y-89730000D01*
%TO.N,Net-(U4-f)*%
X173100000Y-84650000D02*
X175450000Y-87000000D01*
X167810000Y-84650000D02*
X173100000Y-84650000D01*
%TO.N,Net-(U5-F)*%
X178550000Y-87000000D02*
X183010000Y-87000000D01*
X183010000Y-87000000D02*
X183532500Y-87522500D01*
%TO.N,Net-(U5-G)*%
X183470000Y-90000000D02*
X183532500Y-90062500D01*
X178550000Y-90000000D02*
X183470000Y-90000000D01*
%TO.N,Net-(U4-g)*%
X172640000Y-87190000D02*
X175450000Y-90000000D01*
X167810000Y-87190000D02*
X172640000Y-87190000D01*
%TO.N,Net-(U7-DIS)*%
X139545000Y-108000000D02*
X139815000Y-107730000D01*
%TO.N,555*%
X107000000Y-95702500D02*
X107000000Y-96500000D01*
X131925000Y-110000000D02*
X132195000Y-110270000D01*
%TO.N,Reset*%
X151270000Y-89730000D02*
X153810000Y-92270000D01*
X132190000Y-89690000D02*
X132190000Y-89730000D01*
X146190000Y-89730000D02*
X151270000Y-89730000D01*
X121275000Y-78950000D02*
X121275000Y-79275000D01*
X132190000Y-89730000D02*
X137270000Y-89730000D01*
X139810000Y-92270000D02*
X143650000Y-92270000D01*
X143650000Y-92270000D02*
X146190000Y-89730000D01*
X137270000Y-89730000D02*
X139810000Y-92270000D01*
%TD*%
M02*
